Coordinates
version=1
nRows=16
nColumns=22
inDegrees=yes

Units are S.I. units (second, meters, Newtons, ...)
If the header above contains a line with 'inDegrees', this indicates whether rotational values are in degrees (yes) or radians (no).

endheader
time	pelvis_tilt	pelvis_list	pelvis_rotation	pelvis_tx	pelvis_ty	pelvis_tz	hip_flexion_r	hip_adduction_r	hip_rotation_r	knee_angle_r	ankle_angle_r	subtalar_angle_r	hip_flexion_l	hip_adduction_l	hip_rotation_l	knee_angle_l	ankle_angle_l	subtalar_angle_l	lumbar_extension	lumbar_bending	lumbar_rotation
      0.01000000	     -8.13657998	     -0.79013906	    -12.45896036	     -1.12528798	      0.88557085	     -0.45477966	      7.17855929	     -2.01986018	      1.58592536	     -7.21522075	     11.58122190	      0.48334489	      4.46586112	     -5.27048110	    -11.60132588	     -8.41736368	     14.03072875	      6.25923106	      3.51570373	      0.72093463	     12.64727044
      0.02000000	     -8.14019272	     -0.78703103	    -12.44682044	     -1.12513084	      0.88553857	     -0.45478726	      7.17517300	     -2.02416730	      1.58952547	     -7.22365853	     11.58369880	      0.48242023	      4.46182441	     -5.26613609	    -11.59941544	     -8.41815182	     14.03001659	      6.26045794	      3.51939587	      0.73138696	     12.65361835
      0.03000000	     -8.15303800	     -0.77515531	    -12.43449654	     -1.12498972	      0.88547325	     -0.45479508	      7.21828529	     -2.03381386	      1.58314934	     -7.30216205	     11.66336970	      0.45180679	      4.45891391	     -5.25206781	    -11.54380206	     -8.39476200	     14.03568216	      6.29467612	      3.52908549	      0.73381038	     12.67659912
      0.04000000	     -8.15906030	     -0.77063062	    -12.41316353	     -1.12481997	      0.88542306	     -0.45480871	      7.22265112	     -2.03891141	      1.58509280	     -7.32488131	     11.68081820	      0.44111437	      4.46742408	     -5.24869128	    -11.51539793	     -8.41322329	     14.04460101	      6.30464896	      3.52848205	      0.74179874	     12.70491788
      0.05000000	     -8.16862175	     -0.76852360	    -12.39404641	     -1.12462691	      0.88535767	     -0.45481616	      7.24357804	     -2.03952401	      1.58309508	     -7.37861251	     11.72711898	      0.41874687	      4.47687812	     -5.24897160	    -11.46413053	     -8.43441624	     14.08239544	      6.32185587	      3.53478283	      0.75545494	     12.71992525
      0.06000000	     -8.19836348	     -0.76591902	    -12.36023045	     -1.12443194	      0.88525178	     -0.45485493	      7.29644088	     -2.03842206	      1.54284250	     -7.45594585	     11.79831816	      0.36439064	      4.51917018	     -5.25394615	    -11.42655642	     -8.46930116	     14.13335219	      6.35245249	      3.56128375	      0.77692045	     12.70404583
      0.07000000	     -8.21298845	     -0.76696297	    -12.33604715	     -1.12423166	      0.88517514	     -0.45487520	      7.32166136	     -2.03479559	      1.53618101	     -7.50999299	     11.83847461	      0.32864952	      4.54305778	     -5.26019500	    -11.37286044	     -8.50775247	     14.18048398	      6.36986994	      3.56758406	      0.79642940	     12.71621871
      0.08000000	     -8.22148770	     -0.77061377	    -12.31063344	     -1.12401103	      0.88510175	     -0.45488900	      7.34181920	     -2.02963574	      1.51636919	     -7.57057995	     11.89025109	      0.29558676	      4.55866610	     -5.26899982	    -11.32417731	     -8.54716943	     14.23006318	      6.38375596	      3.56676285	      0.81791955	     12.72286750
      0.09000000	     -8.22071599	     -0.77170470	    -12.29301391	     -1.12379086	      0.88504526	     -0.45489442	      7.34583195	     -2.02929039	      1.52025087	     -7.61387216	     11.91845037	      0.28304939	      4.56091901	     -5.27330244	    -11.27280400	     -8.58176295	     14.25936481	      6.39080333	      3.55258210	      0.83498085	     12.75044988
      0.10000000	     -8.22753931	     -0.78168671	    -12.26919877	     -1.12354692	      0.88495965	     -0.45489284	      7.37858843	     -2.01680367	      1.48172341	     -7.70970228	     12.01093031	      0.23852322	      4.56781813	     -5.29006959	    -11.22615760	     -8.61583145	     14.33905600	      6.41229322	      3.54853617	      0.86573006	     12.73827159
      0.11000000	     -8.22408766	     -0.78412348	    -12.25764756	     -1.12333337	      0.88490281	     -0.45487003	      7.39239980	     -2.01327843	      1.50120943	     -7.77709457	     12.04204463	      0.22182661	      4.56299850	     -5.29774259	    -11.16968957	     -8.64723180	     14.37316367	      6.42464443	      3.52687278	      0.88367517	     12.75797812
      0.12000000	     -8.22129043	     -0.79258747	    -12.25039175	     -1.12310254	      0.88483533	     -0.45483338	      7.42194518	     -2.00167590	      1.50834604	     -7.87835774	     12.11244321	      0.19593128	      4.54302653	     -5.31081254	    -11.12989765	     -8.65500378	     14.43424495	      6.44342057	      3.50570686	      0.91256735	     12.76512543
      0.13000000	     -8.21723659	     -0.79717303	    -12.25431205	     -1.12284892	      0.88477129	     -0.45473978	      7.45652216	     -1.99041904	      1.50836953	     -7.99188350	     12.19380015	      0.16048119	      4.51770830	     -5.32384684	    -11.10769213	     -8.66451902	     14.48147341	      6.47019028	      3.48911520	      0.93162560	     12.78002308
      0.14000000	     -8.21607277	     -0.79099179	    -12.26349871	     -1.12259166	      0.88469928	     -0.45465920	      7.50532902	     -1.99049170	      1.50935051	     -8.12004638	     12.30020083	      0.09720024	      4.49030880	     -5.32243522	    -11.11605029	     -8.65886861	     14.51984606	      6.51892267	      3.47529718	      0.94520919	     12.81207234
      0.15000000	     -8.20870535	     -0.78815197	    -12.26532076	     -1.12234023	      0.88465913	     -0.45457781	      7.53062241	     -1.98910331	      1.55254323	     -8.21684262	     12.32539254	      0.07773592	      4.45589558	     -5.32216218	    -11.10084960	     -8.65019956	     14.54412084	      6.53510641	      3.44971221	      0.96205302	     12.80006811
      0.16000000	     -8.19025876	     -0.76255343	    -12.30042659	     -1.12204755	      0.88461693	     -0.45441902	      7.57836009	     -2.00807218	      1.57619558	     -8.36963456	     12.45495690	     -0.01639121	      4.39062185	     -5.29682774	    -11.14214500	     -8.61521651	     14.55448238	      6.60168944	      3.42355579	      0.94725711	     12.84858221
